<svg style="position: absolute; width: 0; height: 0;" width="0" height="0" version="1.1" xmlns="http://www.w3.org/2000/svg" xmlns:xlink="http://www.w3.org/1999/xlink">
<defs>
<symbol id="icon-droplet" viewBox="0 0 32 32">
<title>Water_Consumption</title>
<path class="path1" d="M15.572 5.881c-0.016 0.022-0.084 0.131-0.15 0.244s-0.213 0.366-0.331 0.566c-0.116 0.2-0.272 0.472-0.347 0.609-0.144 0.256-0.256 0.459-0.744 1.325-0.919 1.637-2.378 4.472-2.947 5.719-0.572 1.262-0.678 1.5-0.678 1.512s-0.328 0.797-0.406 0.972c-0.016 0.034-0.050 0.141-0.081 0.234-0.028 0.094-0.094 0.269-0.144 0.391-0.122 0.294-0.472 1.456-0.569 1.897-0.119 0.534-0.153 0.984-0.113 1.556s0.072 0.784 0.172 1.175c0.225 0.859 0.722 1.841 1.287 2.544 0.519 0.641 1.363 1.313 2.134 1.703 0.287 0.144 0.869 0.372 1.169 0.456 0.697 0.194 1.919 0.272 2.659 0.172 1.147-0.159 2.134-0.553 3-1.2 1.169-0.872 1.922-1.913 2.403-3.319 0.209-0.622 0.344-1.766 0.272-2.381-0.163-1.447-0.913-3.481-2.45-6.666-0.587-1.222-1.603-3.172-2.256-4.344-0.125-0.225-0.4-0.716-0.609-1.094-0.444-0.797-1.103-1.934-1.184-2.041-0.044-0.059-0.059-0.066-0.088-0.031z"></path>
</symbol>
<symbol id="icon-facebook" viewBox="0 0 32 32">
<title>facebook</title>
<path class="path1" d="M19 6h5v-6h-5c-3.86 0-7 3.14-7 7v3h-4v6h4v16h6v-16h5l1-6h-6v-3c0-0.542 0.458-1 1-1z"></path>
</symbol>
</defs>
</svg>
